<svg width="54" height="54" viewBox="0 0 54 54" fill="none" xmlns="http://www.w3.org/2000/svg">
<rect width="54" height="54" rx="10" fill="#FFBF43"/>
<path fill-rule="evenodd" clip-rule="evenodd" d="M27 10C17.6075 10 10 17.5705 10 26.9173C10 34.4032 14.8662 40.7261 21.6237 42.9676C22.4737 43.1156 22.7925 42.6081 22.7925 42.164C22.7925 41.7623 22.7713 40.43 22.7713 39.0132C18.5 39.7956 17.395 37.977 17.055 37.0254C16.8637 36.539 16.035 35.0376 15.3125 34.6358C14.7175 34.3186 13.8675 33.5362 15.2913 33.5151C16.63 33.4939 17.5862 34.7416 17.905 35.2491C19.435 37.8078 21.8788 37.0889 22.8563 36.6448C23.005 35.5451 23.4513 34.805 23.94 34.3821C20.1575 33.9591 16.205 32.5 16.205 26.0292C16.205 24.1894 16.8637 22.6668 17.9475 21.4826C17.7775 21.0597 17.1825 19.3257 18.1175 16.9995C18.1175 16.9995 19.5413 16.5555 22.7925 18.7336C24.1525 18.3529 25.5975 18.1626 27.0425 18.1626C28.4875 18.1626 29.9325 18.3529 31.2925 18.7336C34.5438 16.5343 35.9675 16.9995 35.9675 16.9995C36.9025 19.3257 36.3075 21.0597 36.1375 21.4826C37.2213 22.6668 37.88 24.1683 37.88 26.0292C37.88 32.5212 33.9062 33.9591 30.1238 34.3821C30.74 34.9107 31.2712 35.9258 31.2712 37.5118C31.2712 39.7745 31.25 41.5931 31.25 42.164C31.25 42.6081 31.5688 43.1368 32.4188 42.9676C39.1338 40.7261 44 34.3821 44 26.9173C44 17.5705 36.3925 10 27 10Z" fill="white"/>
</svg>
