<svg width="54" height="54" viewBox="0 0 54 54" fill="none" xmlns="http://www.w3.org/2000/svg">
<rect width="54" height="54" rx="10" fill="#FFBF43"/>
<path fill-rule="evenodd" clip-rule="evenodd" d="M18.8119 13C16.9856 13 15.5 14.4873 15.5 16.3154C15.5 18.1435 16.9856 19.6321 18.8119 19.6321C20.6381 19.6321 22.1209 18.1441 22.1209 16.3154C22.1209 14.4873 20.6366 13 18.8119 13ZM21.3195 21.033H16.3008C16.078 21.033 15.8977 21.214 15.8977 21.437V37.5957C15.8977 37.819 16.0783 37.9997 16.3008 37.9997H21.3195C21.5424 37.9997 21.7227 37.8187 21.7227 37.5957V21.437C21.7227 21.2137 21.542 21.033 21.3195 21.033ZM29.6753 22.4865C30.579 21.4996 32.0693 20.6312 34.0849 20.6312V20.6315C39.7378 20.6315 40.5 24.7267 40.5 28.7327V37.596C40.5 37.819 40.3196 38 40.0968 38H35.0871C34.8646 38 34.684 37.8193 34.684 37.596V29.7396C34.684 27.5398 34.5218 25.8573 32.4809 25.8573C30.6071 25.8573 29.8768 26.9068 29.8768 29.6009V37.5957C29.8768 37.8187 29.6965 37.9997 29.4737 37.9997H24.4659C24.2434 37.9997 24.0628 37.819 24.0628 37.5957V21.437C24.0628 21.214 24.2431 21.033 24.4659 21.033H29.2721C29.4946 21.033 29.6753 21.2137 29.6753 21.437V22.4865Z" fill="white"/>
</svg>
